PathFileType	4	(X/Y/Z)	30_2_18_p0_0-621_filt_butterworth.trc
DataRate	CameraRate	NumFrames	NumMarkers	Units	OrigDataRate	OrigDataStartFrame	OrigNumFrames
59.0	59.0	5	27	m	59.0	155	621
Frame#	Time	RHip			RKnee			RAnkle			RBigToe			RSmallToe			RHeel			LHip			LKnee			LAnkle			LBigToe			LSmallToe			LHeel			Neck			Head			Nose			RShoulder			RElbow			RWrist			RThumb			RIndex			RPinky			LShoulder			LElbow			LWrist			LThumb			LIndex			LPinky			
		X1	Y1	Z1	X2	Y2	Z2	X3	Y3	Z3	X4	Y4	Z4	X5	Y5	Z5	X6	Y6	Z6	X7	Y7	Z7	X8	Y8	Z8	X9	Y9	Z9	X10	Y10	Z10	X11	Y11	Z11	X12	Y12	Z12	X13	Y13	Z13	X14	Y14	Z14	X15	Y15	Z15	X16	Y16	Z16	X17	Y17	Z17	X18	Y18	Z18	X19	Y19	Z19	X20	Y20	Z20	X21	Y21	Z21	X22	Y22	Z22	X23	Y23	Z23	X24	Y24	Z24	X25	Y25	Z25	X26	Y26	Z26	X27	Y27	Z27	
155	2.6271186440677967	0.27268990690696243	0.49070184180143733	1.0068717087158912	0.29798273314862994	0.5143050482365153	1.4104137614867254	0.3022381235991879	0.5347546313489181	1.7762042132589986	0.265308425295415	0.34474040823789814	1.8034366677531062	0.3238256661110594	0.34833933394141164	1.7804934242169965	0.27130037087282605	0.6168689863339107	1.8501447009956702	0.06916945673654964	0.48373167267962014	1.0061997559943063	0.06661421861039475	0.5170540877935462	1.4284868907625212	0.0751003568788431	0.5341255385622985	1.7858455028261897	0.0801771386622969	0.33673820862404835	1.786968313339513	0.029839745391403105	0.3935910053399592	1.8077255543350086	0.09513154318780112	0.5708371772820134	1.835964284950453	0.18562272827537715	0.5054928295980281	0.5097089088042993	0.19634457261704638	0.48729237391473446	0.25645573472627936	0.19494041760848552	0.4179959435694305	0.3890033375930041	0.3304474863586334	0.5027729249954503	0.5979569364397264	0.34843809048930874	0.4585165832237079	0.8327368925030604	0.23180825945223954	0.3411686253725529	0.9715241106943416	0.15654128146440932	0.32671109777869933	1.0515636385457647	0.15591134746573504	0.32591161351522235	1.054120183535815	0.16585767973666926	0.3248318195010975	1.0646137666489626	0.027735142692730787	0.5179204268107778	0.5858073240039539	0.008740352034004903	0.4318762593849847	0.796390926742153	0.12709285425182482	0.2957113481265893	0.9409903417701965	0.19685303322724412	0.3174111557392165	1.0376356078299565	0.19336795959767433	0.315287543347062	1.0492189881577012	0.15975882537646255	0.3262818853088546	1.056455956050794
156	2.6440677966101696	0.27201999967969687	0.489213856773982	1.0052114872472022	0.29584279089527	0.5136310368987378	1.4070461965366587	0.3009568519503223	0.5341363055329366	1.775408492921071	0.26494868721840725	0.3444574438927269	1.8044885898625018	0.3240434302026457	0.34878400229686446	1.7804809205756331	0.2716374128141336	0.6164387681521482	1.8500279878413675	0.06925843235218095	0.48341279580323704	1.0066067486433976	0.06631601014479205	0.5167218731688559	1.4269701379866808	0.07490399118827348	0.5332529937658829	1.7853567799085017	0.08144155887838746	0.33236233268506143	1.7873078797473356	0.031258585340450104	0.3940228433236112	1.8078592322511744	0.09520520706113018	0.5700541800433739	1.8375114217605226	0.18563150142159196	0.5055008600001787	0.5098248396151773	0.19627023931957147	0.4871367628760127	0.25641551222940334	0.19493883394334863	0.4180861456689911	0.3889913050711892	0.33010778133407925	0.5026591841551725	0.595466136379674	0.3484600980795388	0.4585245479430502	0.8327817899083281	0.2314930348833381	0.3400835097340498	0.9710856853193793	0.15665063728539247	0.3267190035811544	1.050191098272662	0.15580109980893514	0.32616414394887594	1.0537963081762696	0.16584877906724932	0.32482887233034546	1.0645910093612874	0.027793182725810064	0.5179689441533879	0.5854486777398255	0.00870530960893055	0.43208748665022195	0.7953641299582563	0.12487243302342885	0.29604394049697014	0.9412241853826612	0.1965007814590185	0.3174167864080584	1.0375473672891502	0.19315643899690346	0.3153247802334185	1.0491123177353956	0.1596921496193762	0.3262102518179698	1.0563941729498114
157	2.6610169491525424	0.2705791421877685	0.4857021897368796	1.0025063738689024	0.29490041257656785	0.5132949651229344	1.4046431146642921	0.3006082890567791	0.5337788997245536	1.7738701885507688	0.26422341465603594	0.34409505250190564	1.8027999965322836	0.32427916068469453	0.34923702858135497	1.780439711114497	0.27229388015613476	0.6161381226057996	1.849931424790484	0.06926265692482225	0.48322548480706584	1.0065281579558454	0.0659450679707314	0.5163662575878001	1.4249606309870964	0.07459242389056552	0.5323912704597163	1.784139732276675	0.08260225678678486	0.32912207733619014	1.7871328180034725	0.03233311938799886	0.39432560569055697	1.8079013510532107	0.09523316852110879	0.5692250192587163	1.8390502953731893	0.18563754583756034	0.5054888579219479	0.5099477125719373	0.19653987179641624	0.4870805449318223	0.2563759038046991	0.19493647088351007	0.41815220045718055	0.3889688637013162	0.32990583043554905	0.502604911596746	0.5936132414794029	0.34849990135567643	0.4585269629262616	0.8328727437951164	0.2315253909397953	0.34013704237427234	0.9710837343612272	0.15676947019983548	0.3267177172267065	1.0491333292430132	0.15579588955952964	0.3263719264128693	1.0532729593036816	0.1658582165672755	0.3248084055923194	1.0645375767480048	0.02784114302214764	0.5180021882950404	0.5845579972002278	0.008688550544869899	0.43242618995450344	0.7938170390132554	0.1229547974476044	0.29635572995446935	0.9414396174801762	0.19623643545747127	0.3174516514033633	1.0375384871597035	0.19305310139381657	0.3154702973393693	1.0490939332092448	0.1596530365427528	0.32618064393337254	1.056360971188517
158	2.6779661016949152	0.26883145985603385	0.4812646398591649	0.9998625114925913	0.29504630610659655	0.5131704855764316	1.4038938555513978	0.3012789658582661	0.5337470831945899	1.771959857355779	0.2628489957214847	0.3436570600102938	1.798797838176098	0.3244340223738406	0.3495017194392373	1.7803472736531256	0.27270980666612477	0.616067007788208	1.8499098404399743	0.06922421694142825	0.4831590243065546	1.0063571217804226	0.0656681759193576	0.5160841690507842	1.423434354894455	0.07432715817644667	0.5318666861706886	1.7829220159539996	0.08343934578862841	0.3277720348183873	1.7863304102381004	0.032750255554341065	0.3944183049293874	1.8078567009688784	0.09523135112984185	0.5688349636406186	1.8398115532133228	0.18564760058527222	0.5054598514654577	0.5099584955757095	0.1975214896845464	0.48760627511999466	0.25638347777286763	0.1949355813425729	0.4181919637596309	0.3889363239761208	0.3299033988812878	0.5026234911191808	0.5929278251284552	0.3485121996091501	0.45850697648995564	0.8327684618644416	0.231639334522048	0.3404399189916737	0.9712023175904034	0.1568668752875886	0.32670802960658973	1.0487057334118612	0.1558542936621279	0.32644568406297414	1.0529536097892924	0.16587767431548966	0.32477638185224716	1.0644823054167056	0.027868801106665023	0.5180190398729563	0.5833849928922713	0.008690404556340209	0.43273131784115004	0.7922791357537923	0.12258224276557031	0.296337531436232	0.9414234609896386	0.19615733399179505	0.31751359979536475	1.0375867809641623	0.19307501430582624	0.3156837490400918	1.049190683730242	0.15964531351332878	0.32620429970635206	1.0563725707852907
159	2.694915254237288	0.2675820815629907	0.4780411213806512	0.9983241313699391	0.2955788122682547	0.5131670720907584	1.4040255456342705	0.3021308834376403	0.5338244714208784	1.7704929653332901	0.26160061575151017	0.3433228226334131	1.7952694064497872	0.32444016796084685	0.3494107773334282	1.780238386570988	0.2728210832373815	0.6161014862516712	1.8499076030656116	0.06917949049085914	0.4831578555377556	1.0062825368364074	0.06555306960857851	0.5159485102519492	1.422879352911838	0.07421333476784955	0.5316749599489207	1.782322547317752	0.08376067360539363	0.32751593424349534	1.78556127930678	0.03275075136596682	0.3944000957244064	1.8077957362277717	0.09522607538597946	0.5688171220685262	1.8399251313079936	0.18567845336300623	0.505450600367479	0.5096073530444165	0.19923584950726575	0.48941300773710805	0.25650713360878247	0.1949428267319393	0.41821863304595475	0.3888982693831149	0.32990683174739555	0.502622047790425	0.5929477178084234	0.3484226364153383	0.4585044757879668	0.8320047545719645	0.23170535244835458	0.340614507894782	0.9712852741513489	0.15693741803409997	0.326688297137786	1.0486893687514862	0.1558749531861574	0.32643609652293004	1.0528836846015468	0.16590842993280372	0.32474313375043395	1.064449537504475	0.027895648361509696	0.5180428515625456	0.5824996837737755	0.008695560657342258	0.43290082475386515	0.7911943448424471	0.12382296986401102	0.2959929705969584	0.941180654096096	0.19622707498659103	0.31763428079029693	1.0376699043333903	0.19311688515101458	0.31588412717010994	1.0493574341889935	0.15965382303299722	0.32625292284569174	1.0564171585211677
